- 
http://www.Speed.Cd 
       
http://www.Speed.Cd       the fast  and The Hottest Private Tracker on the net

(((--Registration will be open on june every weekend--)))

Please Seed back to make the speed Faster!!!

------------------nfo--------------------------
-








































          
          
              
              
                    
                    
                    
                    

We.Are.The.Night.2010.DVDSCR.XviD.READNFO-SiC

Poster:
[img]http://www.leetleech.org/images/95130486987668032152.jpg[/img]

IMDB Link:
http://www.imdb.com/title/tt1692504/

Description:
In Berlin, a cop closes in on an all-female vampire trio who just took in a new member, Lena.

General
Complete name                    : We.Are.The.Night.2010.DVDSCR.XviD.READNFO-SiC.avi
Format                           : AVI
Format/Info                      : Audio Video Interleave
File size                        : 1 015 MiB
Duration                         : 1h 39mn
Overall bit rate                 : 1 420 Kbps
Writing application              : VirtualDubMod 1.5.4.1 (build 2178/release)
Writing library                  : VirtualDub build 32842/release

Video
ID                               : 0
Format                           : MPEG-4 Visual
Format profile                   : Advanced Simple@L5
Format settings, BVOP            : 1
Format settings, QPel            : No
Format settings, GMC             : No warppoints
Format settings, Matrix          : Custom
Codec ID                         : XVID
Codec ID/Hint                    : XviD
Duration                         : 1h 39mn
Bit rate                         : 1 027 Kbps
Width                            : 720 pixels
Height                           : 308 pixels
Display aspect ratio             : 2.35:1
Frame rate                       : 23.976 fps
Color space                      : YUV
Chroma subsampling               : 4:2:0
Bit depth                        : 8 bits
Scan type                        : Progressive
Compression mode                 : Lossy
Bits/(Pixel*Frame)               : 0.193
Stream size                      : 734 MiB (72%)
Writing library                  : XviD 64

Audio
ID                               : 1
Format                           : AC-3
Format/Info                      : Audio Coding 3
Mode extension                   : CM (complete main)
Codec ID                         : 2000
Duration                         : 1h 39mn
Bit rate mode                    : Constant
Bit rate                         : 384 Kbps
Channel(s)                       : 2 channels
Channel positions                : Front: L R
Sampling rate                    : 48.0 KHz
Bit depth                        : 16 bits
Compression mode                 : Lossy
Delay relative to video          : 30ms
Stream size                      : 274 MiB (27%)
Alignment                        : Split accross interleaves
Interleave, duration             : 42 ms (1.00 video frame)
Interleave, preload duration     : 500 ms
Language                         : German





Screenshots:
[img]http://www.leetleech.org/images/02145101264423667397.png[/img]
[img]http://www.leetleech.org/images/30493185015697742729.png[/img]
[img]http://www.leetleech.org/images/45807553087371067479.png[/img]
[img]http://www.leetleech.org/images/63346708375246285123.png[/img]
[img]http://www.leetleech.org/images/56171007747656480419.png[/img]

Note: Yep. Another vampire movie. From what I hear though, this one is supposed to be pretty solid. Surely not as good as Stake Land turned out to be, but it looks like it will be enjoyable. This is a German language film, with hardcoded English subtitles. It's been cropped due to the insane letterbox format that it was in originally, but no picture is missing, just a bit of artificial black bars at the top and bottom. There is an occasional "Do not Duplicate" nag that pops up, but it doesn't interfere with the film at all. Enjoy the flick!

Encoder: Thefuzz

Enjoy!

Respects to CaptainHomey, Cyanide, CM8, Rx, Pirate666, THC, ELEKTRI4KA, Killerhz, XtremE, PA, YeFsTe and everyone in the struggle...